<?xml version="1.0" encoding="UTF-8"?>
<svg id="Ebene_2" data-name="Ebene 2" xmlns="http://www.w3.org/2000/svg" viewBox="0 0 788.41 243.68">
  <defs>
    <style>
      .cls-1 {
        fill: #fff;
      }

      .cls-2 {
        fill: #0084bd;
      }

      .cls-3 {
        fill: #0070bd;
      }
    </style>
  </defs>
  <g>
    <path class="cls-1" d="M13.95,23.42h45.4c33.68,0,56.67,21.86,56.67,54.66s-23,54.66-56.67,54.66H13.95V23.42ZM58.45,115.55c23.14,0,38.13-14.84,38.13-37.48s-14.98-37.48-38.13-37.48h-25.22v74.96h25.22Z"/>
    <path class="cls-1" d="M136.49,23.42h19.29v109.31h-19.29V23.42Z"/>
    <path class="cls-1" d="M254.74,76.82h18.25v43.57c-10.83,9.21-25.96,13.9-40.65,13.9-32.19,0-55.93-23.58-55.93-56.22s23.74-56.22,56.23-56.22c17.36,0,31.9,6.09,41.69,17.8l-12.17,12.49c-8.16-8.59-17.51-12.49-28.63-12.49-22.11,0-37.68,15.77-37.68,38.42s15.58,38.42,37.54,38.42c7.42,0,14.69-1.56,21.36-5.62v-34.04Z"/>
    <path class="cls-1" d="M298.36,23.42h19.29v109.31h-19.29V23.42Z"/>
    <path class="cls-2" d="M501.02,23.42l-33.97,109.31h-25.82l-22.85-74.02-23.59,74.02h-25.67l-34.12-109.31h24.92l23.44,76.83,24.48-76.83h22.25l23.74,77.45,24.18-77.45h23Z"/>
    <path class="cls-1" d="M539.3,40.6h-34.42v-17.18h88.13v17.18h-34.42v92.13h-19.29V40.6Z"/>
    <path class="cls-1" d="M669.71,107.43h-51.93l-10.24,25.3h-19.88l46.73-109.31h18.99l46.88,109.31h-20.18l-10.39-25.3ZM663.33,91.5l-19.58-47.78-19.44,47.78h39.02Z"/>
    <path class="cls-1" d="M713.48,23.42h19.29v92.13h54.3v17.18h-73.59V23.42Z"/>
  </g>
  <path class="cls-2" d="M16.72,208.86c-.3-1.15,20.68-15.56,63.75-19.18,108.87-6.39,134.57,33.94,222.46,32.26,118.95.84,155.15-56.36,247.49-49.96,77.25,2.36,122.92,37.26,185.56,42.08,23.43,1.08,46.31-4.47,46.52-2.89.16,1.24-21,5.52-34.41,7.31-61.77,8.25-85.63-19.24-153.92-27.1-16.31-1.88-60.23-6.52-111.86,7.55-34.08,9.29-40.72,18.34-89.37,31.35-26.88,7.19-49.93,13.18-80.97,13.4-28.15.19-48.9-5.18-75.9-10.45-37.55-7.33-38.74-13.01-82.78-23.46-28.55-6.78-52.52-11.42-83.67-9.47-30.12,1.89-52.67,9.47-52.9,8.57Z"/>
  <g>
    <polygon class="cls-3" points="478.02 23.42 501.02 23.42 467.04 132.73 441.23 132.73 478.02 23.42"/>
    <polygon class="cls-2" points="407.85 23.42 430.1 23.42 467.04 132.73 441.23 132.73 407.85 23.42"/>
    <polygon class="cls-3" points="407.85 23.42 430.1 23.42 394.79 132.73 369.12 132.73 407.85 23.42"/>
    <polygon class="cls-2" points="335 23.42 359.93 23.42 394.79 132.73 369.12 132.73 335 23.42"/>
  </g>
</svg>